<svg width="1440" height="900" viewBox="0 0 1440 900" fill="none" xmlns="http://www.w3.org/2000/svg">
<rect x="-0.397217" y="1.02734" width="1440" height="880" fill="#5EAE53"/>
<path opacity="0.30385" d="M567.076 1096.45C621.105 1084.01 645.888 1061.74 654.218 1032.92C658.595 1017.77 658.392 1000.93 655.64 982.967C652.888 965.002 647.576 945.842 641.681 926.043C640.401 921.744 639.094 917.415 637.779 913.06C626.965 877.249 615.64 839.745 614.792 803.331C613.843 762.581 626.023 723.244 666.898 689.32C708.158 655.076 730.66 621.654 743.499 589.364C756.33 557.095 759.485 526.011 762.132 496.538C762.237 495.369 762.341 494.203 762.445 493.039C764.965 464.822 767.347 438.163 777.624 413.157C788.303 387.173 807.539 362.915 844.516 340.697C918.745 296.096 959.738 280.126 1008.75 275.25C1033.29 272.808 1059.86 273.146 1093.67 274.099C1099.41 274.26 1105.35 274.44 1111.52 274.626C1141.73 275.538 1177.51 276.617 1221.79 276.617C1275.41 276.617 1316.66 254.025 1350.9 225.876C1368.01 211.806 1383.38 196.336 1397.66 181.6C1399.67 179.524 1401.66 177.463 1403.63 175.423C1415.66 162.966 1426.94 151.282 1437.94 141.667C1450.74 130.473 1463.05 122.173 1475.56 118.726C1488.01 115.294 1500.74 116.648 1514.47 124.932C1528.26 133.243 1543.07 148.541 1559.57 173.043C1576.06 197.535 1594.2 231.156 1614.63 276.032C1696.31 455.391 1696.33 660.632 1675.89 821.11C1665.67 901.337 1650.35 970.347 1637.58 1019.3C1631.19 1043.77 1625.44 1063.23 1621.3 1076.57C1619.22 1083.24 1617.55 1088.38 1616.39 1091.85C1615.81 1093.58 1615.36 1094.9 1615.06 1095.79C1614.97 1096.04 1614.89 1096.27 1614.83 1096.45H567.076ZM356.001 1085.81C373.614 1089.96 391.101 1093.56 408.359 1096.45H-186.907C-187.011 1096.35 -187.143 1096.23 -187.302 1096.08C-187.739 1095.67 -188.372 1095.05 -189.15 1094.23C-190.705 1092.6 -192.834 1090.16 -195.111 1086.99C-199.666 1080.63 -204.803 1071.33 -207.148 1059.54C-211.821 1036.04 -205.471 1002.27 -160.374 961.795C-149.295 951.851 -133.614 947.14 -114.028 946.528C-94.4429 945.916 -71.0634 949.406 -44.7192 955.749C3.46951 967.352 61.3703 988.446 123.778 1011.18C129.613 1013.31 135.486 1015.45 141.395 1017.6C210.478 1042.71 284.326 1068.89 356.001 1085.81ZM435.988 1098.45H546.17C511.785 1103.79 474.654 1103.19 435.988 1098.45Z" stroke="white" stroke-width="2"/>
<path opacity="0.30385" d="M574.547 1047.53C625.755 1036.71 652.598 1019.42 665.963 997.591C679.732 975.1 679.111 947.909 676.356 918.383C675.914 913.648 675.418 908.851 674.915 904.002C672.281 878.571 669.497 851.7 673.714 824.614C678.729 792.403 693.651 759.889 730.594 729.248C767.723 698.453 784.452 665.357 790.731 631.778C797.006 598.224 792.838 564.213 788.235 531.614C787.932 529.47 787.627 527.332 787.324 525.2C783.006 494.895 778.881 465.95 783.03 439.742C787.463 411.744 801.343 386.864 834.649 366.864C901.376 326.797 963.291 326.784 1032.57 336.815C1051.31 339.528 1070.59 342.978 1090.65 346.567C1144.74 356.244 1204.5 366.936 1274.55 366.936C1322.71 366.936 1359.73 344.937 1390.46 317.068C1405.82 303.135 1419.61 287.728 1432.44 272.86C1435.24 269.609 1438 266.383 1440.72 263.205C1450.44 251.844 1459.64 241.084 1468.63 231.862C1480.14 220.058 1491.26 210.827 1502.59 206.102C1513.89 201.389 1525.42 201.151 1537.83 207.368C1550.26 213.601 1563.61 226.335 1578.46 247.647C1593.31 268.952 1609.63 298.79 1628.03 339.172C1701.59 500.591 1676.75 677.712 1633.48 814.533C1611.84 882.936 1585.61 941.246 1564.78 982.456C1554.37 1003.06 1545.31 1019.39 1538.85 1030.56C1535.63 1036.15 1533.05 1040.45 1531.28 1043.35C1530.39 1044.81 1529.71 1045.91 1529.25 1046.65C1529.02 1047.01 1528.84 1047.29 1528.73 1047.48L1528.7 1047.53H574.547ZM564.367 1048.53C469.807 1066.31 347.404 1065.06 232.479 1063.89C216.091 1063.72 199.854 1063.56 183.873 1063.45C118.842 1063.01 58.0266 1063.51 8.36769 1068.7C-16.4625 1071.29 -38.5188 1075.06 -56.9267 1080.47C-75.3296 1085.88 -90.1217 1092.94 -100.392 1102.16C-110.578 1111.29 -118.104 1117.28 -123.48 1120.76C-126.17 1122.51 -128.3 1123.62 -129.942 1124.18C-131.605 1124.76 -132.659 1124.74 -133.284 1124.42C-133.867 1124.12 -134.236 1123.46 -134.289 1122.27C-134.342 1121.09 -134.07 1119.5 -133.501 1117.56C-132.365 1113.7 -130.095 1108.62 -127.173 1102.93C-121.335 1091.57 -112.947 1077.92 -106.014 1067.1C-102.548 1061.69 -99.448 1056.99 -97.2142 1053.65C-96.0973 1051.97 -95.1971 1050.64 -94.5762 1049.72C-94.2658 1049.27 -94.0252 1048.91 -93.8623 1048.67L-93.7628 1048.53H564.367Z" stroke="white"/>
<path opacity="0.30385" d="M1598.55 1003.76C1598.51 1003.86 1598.47 1003.95 1598.44 1004.03H668.513C684.188 996.101 694.711 986.704 701.637 976.084C714.666 956.104 714.79 932.027 713.013 906.024C712.714 901.661 712.362 897.243 712.007 892.777C710.235 870.526 708.368 847.076 712.555 823.332C717.569 794.897 731.28 766.038 764.421 738.555C830.682 683.607 912.929 692.834 994.046 706.973C1001.3 708.238 1008.55 709.542 1015.77 710.842C1048.87 716.797 1081.5 722.668 1112.36 724.298C1149.98 726.284 1185.11 721.982 1215.44 703.775C1245.85 685.514 1258.52 657.923 1263.15 626.975C1267.03 601.1 1265.3 572.772 1263.63 545.503C1263.31 540.226 1262.99 534.988 1262.71 529.815C1261 497.799 1260.97 468.358 1271.98 446.912C1277.46 436.233 1285.69 427.528 1297.87 421.48C1310.08 415.422 1326.3 412.004 1347.79 412.004C1422.22 412.004 1454.97 358.322 1478.21 320.211C1482.14 313.764 1485.8 307.762 1489.35 302.541C1495.52 293.452 1501.24 286.866 1507.3 284.154C1510.29 282.816 1513.37 282.422 1516.67 283.153C1519.98 283.888 1523.58 285.778 1527.57 289.118C1535.57 295.815 1544.94 308.18 1556.47 328.035C1567.99 347.867 1581.63 375.089 1598.19 411.419C1664.33 556.55 1664.34 704.844 1647.8 816.894C1639.52 872.914 1627.11 919.859 1616.77 952.796C1611.6 969.264 1606.95 982.228 1603.59 991.072C1601.92 995.495 1600.56 998.887 1599.63 1001.17C1599.16 1002.31 1598.8 1003.18 1598.55 1003.76ZM-93.6746 1007.65C-93.3385 1006.94 -93.0781 1006.4 -92.9013 1006.03H659.455C647.12 1011.28 631.975 1015.8 613.409 1019.47C541.786 1033.62 434.667 1044 324.032 1054.73C283.765 1058.63 243.031 1062.58 203.374 1066.77C129.093 1074.62 58.598 1083.33 2.0779 1094.18C-26.1816 1099.61 -50.9712 1105.59 -71.0048 1112.27C-91.0124 1118.94 -106.382 1126.35 -115.71 1134.72C-120.272 1138.81 -124.159 1141.87 -127.437 1144.01C-130.726 1146.15 -133.348 1147.34 -135.387 1147.77C-137.404 1148.2 -138.743 1147.86 -139.657 1147.09C-140.611 1146.29 -141.304 1144.87 -141.643 1142.69C-142.321 1138.32 -141.477 1131.62 -139.503 1123.34C-137.537 1115.1 -134.486 1105.45 -130.855 1095.26C-123.594 1074.87 -114.039 1052.43 -106.295 1035.07C-102.423 1026.39 -99.0065 1018.99 -96.5575 1013.75C-95.3331 1011.14 -94.3507 1009.06 -93.6746 1007.65Z" stroke="white" stroke-width="2"/>
<path opacity="0.30385" d="M1598.9 1003.75C1598.82 1004.08 1598.75 1004.34 1598.7 1004.53H812.494C806.295 991.701 798.27 978.125 789.854 964.1C789.024 962.717 788.19 961.33 787.354 959.938C769.61 930.416 750.762 899.055 743.687 868.411C739.985 852.38 739.513 836.571 744.096 821.343C748.677 806.119 758.323 791.435 774.922 777.67C808.122 750.139 851.223 740.845 899.154 741.307C947.087 741.769 999.784 751.985 1052.12 763.41C1061.2 765.391 1070.26 767.408 1079.28 769.416C1122.3 778.99 1164.46 788.372 1202.81 792.715C1249.2 797.968 1290.15 795.865 1320.38 777.714C1350.7 759.513 1358.46 729.212 1355.85 694.183C1353.49 662.568 1342.67 626.98 1332.26 592.739C1331.15 589.067 1330.04 585.41 1328.94 581.775C1323.28 562.998 1318.03 544.807 1314.7 528.077C1311.36 511.342 1309.93 496.108 1311.89 483.239C1313.84 470.386 1319.17 459.914 1329.31 452.642C1339.48 445.359 1354.54 441.238 1376.08 441.238C1419.28 441.238 1450.1 438.788 1473.41 436.672C1476 436.438 1478.5 436.207 1480.9 435.984C1500.21 434.2 1513.93 432.931 1525.58 434.116C1538.62 435.443 1549.05 439.853 1561.72 450.16C1574.42 460.488 1589.36 476.716 1611.42 501.671C1633.35 526.481 1643.57 570.282 1646.52 622.168C1649.46 674.023 1645.12 733.832 1638.02 790.542C1630.93 847.25 1621.07 900.842 1612.99 940.259C1608.95 959.966 1605.36 976.13 1602.77 987.365C1601.48 992.983 1600.44 997.369 1599.72 1000.35C1599.36 1001.84 1599.08 1002.98 1598.9 1003.75ZM-93.2654 1005.81C-93.2294 1005.7 -93.1978 1005.61 -93.1708 1005.53H811.866C812.353 1006.54 812.829 1007.55 813.292 1008.56C819.662 1022.38 823.66 1035.21 823.49 1046.7C823.32 1058.15 819.006 1068.29 808.678 1076.78C798.326 1085.3 781.908 1092.17 757.506 1096.99C708.677 1106.63 635.637 1111.07 552.362 1113.32C492.391 1114.95 427.135 1115.43 361.819 1115.92C336.447 1116.11 311.065 1116.3 285.982 1116.56C196.333 1117.48 110.483 1119.25 42.4571 1124.9C8.44481 1127.72 -21.1264 1131.52 -44.4959 1136.67C-67.8398 1141.82 -85.0849 1148.34 -94.3603 1156.66C-98.9299 1160.75 -102.912 1163.73 -106.361 1165.73C-109.814 1167.73 -112.707 1168.72 -115.103 1168.89C-117.481 1169.05 -119.38 1168.39 -120.892 1167.06C-122.418 1165.71 -123.588 1163.63 -124.421 1160.89C-126.089 1155.4 -126.355 1147.42 -125.611 1137.89C-124.867 1128.37 -123.121 1117.35 -120.799 1105.8C-116.156 1082.71 -109.221 1057.56 -103.445 1038.17C-100.557 1028.48 -97.9597 1020.23 -96.0843 1014.41C-95.1466 1011.5 -94.3895 1009.19 -93.8668 1007.61C-93.6055 1006.83 -93.4028 1006.22 -93.2654 1005.81Z" fill="#429636" stroke="white"/>
<path opacity="0.30385" d="M89.1491 -124.473C143.868 -124.473 190.097 -110.738 226.866 -84.0241C263.635 -57.3098 290.983 -17.5877 307.892 34.4534C316.331 60.4254 313.656 77.4544 303.692 89.4664C293.687 101.529 276.244 108.655 254.83 114.568C245.008 117.28 234.377 119.731 223.279 122.289C222.293 122.516 221.304 122.744 220.312 122.973C208.145 125.781 195.465 128.755 182.736 132.367C157.278 139.591 131.593 149.377 109.355 165.533C87.1454 181.669 64.7065 204.161 42.1756 227.784C37.5621 232.621 32.9447 237.506 28.3243 242.394C10.3681 261.389 -7.63412 280.433 -25.6379 296.934C-48.2778 317.683 -70.8671 334.358 -93.2959 341.842C-115.689 349.313 -137.929 347.626 -159.955 331.623C-182.016 315.595 -193.262 295.565 -197.214 272.901C-201.17 250.216 -197.821 224.868 -190.632 198.225C-183.443 171.585 -172.427 143.693 -161.082 115.926C-159.614 112.333 -158.14 108.743 -156.668 105.157C-146.773 81.0427 -136.972 57.1604 -129.594 34.4534C-112.685 -17.5877 -85.3372 -57.3098 -48.5681 -84.0241C-11.7989 -110.738 34.4298 -124.473 89.1491 -124.473Z" stroke="white"/>
<path opacity="0.30385" d="M88.7836 -123.973C143.513 -123.973 177.188 -115.416 201.425 -94.0698C225.71 -72.6809 240.692 -38.3143 257.633 13.8246C266.07 39.791 266.186 57.3767 260.477 70.205C254.771 83.0259 243.141 91.3382 227.473 98.5067C217.873 102.899 206.888 106.81 194.939 111.065C187.33 113.774 179.33 116.622 171.05 119.822C149.834 128.02 126.963 138.466 104.696 154.644C83.2717 170.21 61.5854 189.505 39.8059 208.883C38.9995 209.601 38.193 210.318 37.3864 211.036C14.775 231.149 -7.93324 251.209 -30.6294 267.243C-53.3308 283.281 -75.9379 295.23 -98.33 299.193C-120.674 303.147 -142.857 299.161 -164.801 283.218C-186.814 267.225 -197.651 250.282 -201.118 232.297C-204.593 214.275 -200.699 195.051 -192.931 174.448C-186.246 156.717 -176.734 138.065 -166.688 118.365C-165.057 115.167 -163.413 111.942 -161.764 108.689C-149.97 85.4204 -137.978 60.7489 -129.484 34.6079C-112.601 -17.352 -85.3084 -56.9782 -48.6397 -83.6196C-11.9711 -110.261 34.1496 -123.973 88.7836 -123.973Z" fill="#429636" stroke="white" stroke-width="2"/>
<path opacity="0.30385" d="M117.947 -157C172.411 -157 225.124 -129.221 268.491 -88.3503C311.851 -47.4856 345.77 6.37856 362.652 58.3364C366.85 71.2574 367.529 81.5818 365.439 89.9086C363.356 98.2116 358.493 104.635 351.396 109.724C337.115 119.964 313.914 124.723 286.601 128.258C277.475 129.439 267.897 130.483 258.069 131.554C238.606 133.675 218.166 135.902 198.324 139.514C168.441 144.954 139.709 153.562 117.359 169.8C95.0422 186.014 71.7271 215.098 47.9677 248.46C36.6994 264.283 25.3127 281.096 13.8711 297.989L11.977 300.786C-0.104874 318.622 -12.2447 336.494 -24.3827 353.357C-48.6764 387.108 -72.891 416.715 -96.512 433.873C-108.314 442.446 -119.902 447.86 -131.22 449.177C-142.506 450.49 -153.608 447.738 -164.501 439.824C-186.346 423.953 -197.314 397.348 -200.853 364.515C-204.392 331.689 -200.484 292.796 -192.735 252.587C-179.845 185.701 -156.369 115.378 -139.08 63.5885C-135.582 53.1087 -132.337 43.3878 -129.484 34.6079C-95.7244 -69.2932 8.83846 -157 117.947 -157Z" stroke="white" stroke-width="2"/>
</svg>
